<svg xmlns="http://www.w3.org/2000/svg" viewBox="0 0 1200 760" role="img" aria-label="Mapa estilizado de Clare Morris e regiao">
  <defs>
    <linearGradient id="sky" x1="0" y1="0" x2="1" y2="1">
      <stop offset="0" stop-color="#eef7f0"/>
      <stop offset="0.48" stop-color="#dff0e7"/>
      <stop offset="1" stop-color="#f7e9bd"/>
    </linearGradient>
    <linearGradient id="road" x1="0" y1="0" x2="1" y2="0">
      <stop offset="0" stop-color="#263238"/>
      <stop offset="1" stop-color="#45545a"/>
    </linearGradient>
    <filter id="softShadow" x="-20%" y="-20%" width="140%" height="140%">
      <feDropShadow dx="0" dy="18" stdDeviation="22" flood-color="#1b2b28" flood-opacity=".24"/>
    </filter>
  </defs>
  <rect width="1200" height="760" fill="url(#sky)"/>
  <path d="M0 510 C150 450 275 456 404 492 C542 531 670 556 819 514 C965 473 1071 460 1200 496 L1200 760 L0 760 Z" fill="#8abf70" opacity=".75"/>
  <path d="M0 570 C196 503 312 534 465 588 C617 641 752 616 870 557 C1007 490 1104 516 1200 550 L1200 760 L0 760 Z" fill="#507b58" opacity=".7"/>
  <path d="M55 693 C230 619 355 557 523 519 C682 483 763 389 853 267 C920 175 1019 125 1144 94" fill="none" stroke="url(#road)" stroke-width="96" stroke-linecap="round"/>
  <path d="M55 693 C230 619 355 557 523 519 C682 483 763 389 853 267 C920 175 1019 125 1144 94" fill="none" stroke="#f5c542" stroke-width="10" stroke-linecap="round" stroke-dasharray="26 34"/>
  <circle cx="412" cy="551" r="76" fill="#ffffff" opacity=".92" filter="url(#softShadow)"/>
  <circle cx="412" cy="551" r="39" fill="#18a05e"/>
  <circle cx="916" cy="198" r="72" fill="#ffffff" opacity=".92" filter="url(#softShadow)"/>
  <path d="M916 146 C884 146 858 172 858 204 C858 251 916 300 916 300 C916 300 974 251 974 204 C974 172 948 146 916 146 Z" fill="#f5c542"/>
  <circle cx="916" cy="203" r="22" fill="#263238"/>
  <g filter="url(#softShadow)">
    <path d="M626 417 C642 389 670 373 706 373 L794 373 C820 373 843 387 856 410 L878 449 L605 449 Z" fill="#111c20"/>
    <rect x="579" y="439" width="326" height="88" rx="35" fill="#22333a"/>
    <path d="M655 397 L716 397 C739 397 755 411 764 434 L630 434 C635 417 644 405 655 397 Z" fill="#a9d9e8"/>
    <path d="M780 397 L808 397 C827 397 840 410 848 434 L781 434 Z" fill="#a9d9e8"/>
    <circle cx="660" cy="531" r="34" fill="#141a1d"/>
    <circle cx="660" cy="531" r="13" fill="#d9e2df"/>
    <circle cx="821" cy="531" r="34" fill="#141a1d"/>
    <circle cx="821" cy="531" r="13" fill="#d9e2df"/>
    <rect x="594" y="458" width="58" height="18" rx="9" fill="#f5c542"/>
  </g>
  <path d="M82 193 C169 130 236 126 306 164 C376 202 436 215 505 174 C576 132 633 109 718 139" fill="none" stroke="#ffffff" stroke-width="24" stroke-linecap="round" opacity=".5"/>
  <path d="M83 229 C170 166 237 162 307 200 C377 238 437 251 506 210 C577 168 634 145 719 175" fill="none" stroke="#ffffff" stroke-width="14" stroke-linecap="round" opacity=".35"/>
</svg>
